<svg height="512" viewBox="0 0 128 128" width="512" xmlns="http://www.w3.org/2000/svg"><g id="Circle_Grid" data-name="Circle Grid"><circle cx="64" cy="64" fill="#f6c863" r="64"/></g><g id="icon"><path d="m96.892 52.96h3.09v10.587h-3.09z" fill="#363842"/><path d="m22.5 70.785v3.215a.964.964 0 0 0 .96.969h14.277v-5.153h.135l6.083 5.114h55.316a.709.709 0 0 0 .71-.71v-3.08a.709.709 0 0 0 -.71-.71h-1.271v-26.243a2.081 2.081 0 0 0 -2.082-2.082h-41.869a2.1 2.1 0 0 0 -1.938 1.3l-4.635 11.423h-13.73a7.9 7.9 0 0 0 -7.907 7.907v7.081h-2.379a.965.965 0 0 0 -.96.969z" fill="#ef5261"/><rect fill="#69b0ee" height="10.165" rx=".414" width="21.591" x="72.58" y="45.882"/><path d="m73.842 47.144h19.068v7.642h-19.068z" fill="#69b0ee"/><path d="m69.977 46.3a.414.414 0 0 0 -.414-.414h-13.5a1.042 1.042 0 0 0 -1 .763l-2.5 8.987a.415.415 0 0 0 .415.415h16.585a.414.414 0 0 0 .414-.415z" fill="#69b0ee"/><path d="m68.716 54.752v-7.608h-12.343l-2.209 7.608z" fill="#69b0ee"/><path d="m84.822 45.882-3.642 10.134h-.911l3.643-10.134z" fill="#eeefee" opacity=".5"/><path d="m89.297 45.882-3.643 10.134h-2.732l3.642-10.134z" fill="#eeefee" opacity=".5"/><path d="m62.946 45.882-4.27 10.134h-1.067l4.27-10.134z" fill="#eeefee" opacity=".5"/><path d="m68.191 45.882-4.27 10.134h-3.203l4.27-10.134z" fill="#eeefee" opacity=".5"/><path d="m74.986 74.93h21.414a10.893 10.893 0 0 0 -21.416 0z" fill="#2f313a"/><path d="m27.485 74.93h21.415a10.893 10.893 0 0 0 -21.417 0z" fill="#2f313a"/><path d="m76.72 76.919a8.956 8.956 0 0 0 4.442 7.746 8.766 8.766 0 0 0 1.3.636 8.975 8.975 0 1 0 -5.745-8.382z" fill="#414451"/><path d="m85.686 81.422a4.5 4.5 0 1 0 -4.493-4.5 4.509 4.509 0 0 0 4.493 4.5z" fill="#dbd8dd"/><path d="m85.689 79.056a2.132 2.132 0 1 0 -2.13-2.134 2.137 2.137 0 0 0 2.13 2.134z" fill="#575b6d"/><g fill="#373a44"><path d="m81.162 84.665a8.766 8.766 0 0 0 1.3.636l.292-1.053a.2.2 0 0 0 -.271-.24z"/><path d="m77.9 81.363a8.786 8.786 0 0 0 .811 1.2l.779-.766a.2.2 0 0 0 -.115-.343z"/><path d="m76.723 76.871a8.836 8.836 0 0 0 .1 1.447l1.058-.274a.2.2 0 0 0 .072-.354z"/><path d="m77.95 72.394a8.964 8.964 0 0 0 -.636 1.3l1.053.292a.2.2 0 0 0 .24-.271z"/><path d="m81.252 69.13a8.941 8.941 0 0 0 -1.2.811l.766.779a.2.2 0 0 0 .343-.114z"/><path d="m85.744 67.955a8.844 8.844 0 0 0 -1.447.1l.274 1.058a.2.2 0 0 0 .355.072z"/><path d="m90.221 69.183a8.863 8.863 0 0 0 -1.3-.636l-.295 1.053a.2.2 0 0 0 .271.24z"/><path d="m93.485 72.485a8.786 8.786 0 0 0 -.811-1.2l-.779.766a.2.2 0 0 0 .115.343z"/><path d="m94.66 76.976a8.832 8.832 0 0 0 -.1-1.446l-1.06.27a.2.2 0 0 0 -.072.355z"/><path d="m93.432 81.454a8.764 8.764 0 0 0 .636-1.3l-1.053-.292a.2.2 0 0 0 -.239.271z"/><path d="m90.13 84.717a8.945 8.945 0 0 0 1.2-.81l-.766-.78a.2.2 0 0 0 -.343.115z"/><path d="m85.639 85.893a8.824 8.824 0 0 0 1.446-.1l-.273-1.058a.2.2 0 0 0 -.355-.072z"/></g><path d="m29.223 76.919a8.955 8.955 0 0 0 4.441 7.746 8.734 8.734 0 0 0 4.525 1.23 8.971 8.971 0 1 0 -8.966-8.976z" fill="#414451"/><path d="m38.188 81.422a4.5 4.5 0 1 0 -4.493-4.5 4.508 4.508 0 0 0 4.493 4.5z" fill="#dbd8dd"/><path d="m38.191 78.879a1.956 1.956 0 1 0 -1.953-1.957 1.96 1.96 0 0 0 1.953 1.957z" fill="#575b6d"/><path d="m33.664 84.665a8.863 8.863 0 0 0 1.3.636l.292-1.053a.2.2 0 0 0 -.271-.24z" fill="#373a44"/><path d="m30.4 81.363a8.786 8.786 0 0 0 .811 1.2l.779-.766a.2.2 0 0 0 -.115-.343z" fill="#373a44"/><path d="m29.225 76.871a8.836 8.836 0 0 0 .1 1.447l1.058-.274a.2.2 0 0 0 .072-.354z" fill="#373a44"/><path d="m30.453 72.394a8.863 8.863 0 0 0 -.636 1.3l1.053.292a.2.2 0 0 0 .24-.271z" fill="#373a44"/><path d="m33.755 69.13a8.952 8.952 0 0 0 -1.2.811l.766.779a.2.2 0 0 0 .344-.114z" fill="#373a44"/><path d="m38.246 67.955a8.824 8.824 0 0 0 -1.446.1l.273 1.058a.2.2 0 0 0 .355.072z" fill="#373a44"/><path d="m42.724 69.183a8.825 8.825 0 0 0 -1.3-.636l-.296 1.053a.2.2 0 0 0 .272.24z" fill="#373a44"/><path d="m45.987 72.485a8.872 8.872 0 0 0 -.81-1.2l-.78.766a.2.2 0 0 0 .115.343z" fill="#373a44"/><path d="m47.163 76.976a8.944 8.944 0 0 0 -.1-1.446l-1.063.27a.2.2 0 0 0 -.072.355z" fill="#373a44"/><path d="m45.935 81.454a8.964 8.964 0 0 0 .636-1.3l-1.053-.292a.2.2 0 0 0 -.24.271z" fill="#373a44"/><path d="m42.633 84.717a8.935 8.935 0 0 0 1.2-.81l-.766-.78a.2.2 0 0 0 -.343.115z" fill="#373a44"/><path d="m38.141 85.893a8.844 8.844 0 0 0 1.447-.1l-.274-1.058a.2.2 0 0 0 -.354-.072z" fill="#373a44"/><rect fill="#eeefee" height="1.824" rx=".912" width="6.016" x="62.697" y="59.915"/><path d="m98.937 50.285v15.937a.956.956 0 0 0 .959.96h4.558a1.048 1.048 0 0 0 1.046-1.008v-15.8a1.048 1.048 0 0 0 -1.046-1.046h-4.554a.962.962 0 0 0 -.959.96z" fill="#414451"/><path d="m98.937 50.285v.048l6.563 2.3v-.778l-6.323-2.207a.945.945 0 0 0 -.24.637z" fill="#363842"/><path d="m98.937 52.415v.777l6.563 2.313v-.787z" fill="#363842"/><path d="m98.937 55.274v.787l6.563 2.303v-.777z" fill="#363842"/><path d="m98.937 58.143v.777l6.563 2.313v-.787z" fill="#363842"/><path d="m98.937 61.003v.786l6.563 2.303v-.777z" fill="#363842"/><path d="m98.937 63.872v.777l6.285 2.2a1.044 1.044 0 0 0 .278-.672z" fill="#363842"/><path d="m25.839 62.735v3.012h3.6l.96-5.833h-4.04a7.831 7.831 0 0 0 -.52 2.821z" fill="#eeefee"/></g></svg>