<?xml version="1.0"?>
<svg xmlns="http://www.w3.org/2000/svg" xmlns:xlink="http://www.w3.org/1999/xlink" xmlns:svgjs="http://svgjs.com/svgjs" version="1.1" width="512" height="512" x="0" y="0" viewBox="0 0 512 512" style="enable-background:new 0 0 512 512" xml:space="preserve" class=""><circle r="256" cx="256" cy="256" fill="#830d92" shape="circle" transform="matrix(1,0,0,1,0,0)"/><g transform="matrix(0.5,0,0,0.5,128.00001716613772,128.00001525878895)"><path xmlns="http://www.w3.org/2000/svg" d="m160 488-72-.00067a48 48 0 0 1 -47.99995-48v-55.99933h119.99995z" fill="#edeef1" data-original="#4976f2" style="" class=""/><path xmlns="http://www.w3.org/2000/svg" d="m88 488 336-.00067a48 48 0 0 0 48-48v-399.99933a16 16 0 0 0 -16-16h-304a16 16 0 0 0 -16 16v400.00005a48 48 0 0 1 -47.99995 48z" fill="#ffffff" data-original="#548aff" style="" class=""/><path xmlns="http://www.w3.org/2000/svg" d="m328 64h40l-16 24 8 16-40 32 8-32-16-16z" fill="#ffc431" data-original="#ffc431" style="" class=""/><path xmlns="http://www.w3.org/2000/svg" d="m296 112c0-13.25483-24-48-24-48s-24 34.74517-24 48a24 24 0 0 0 48 0z" fill="#830d92" data-original="#8be0e8" style="" class=""/><g xmlns="http://www.w3.org/2000/svg" fill="#7dafff"><path d="m176 184h40v16h-40z" fill="#a67dff" data-original="#7dafff" style="" class=""/><path d="m232 184h56v16h-56z" fill="#a67dff" data-original="#7dafff" style="" class=""/><path d="m176 216h80v16h-80z" fill="#a67dff" data-original="#7dafff" style="" class=""/><path d="m392 184h40v16h-40z" fill="#a67dff" data-original="#7dafff" style="" class=""/><path d="m176 256h88v16h-88z" fill="#a67dff" data-original="#7dafff" style="" class=""/><path d="m280 256h48v16h-48z" fill="#a67dff" data-original="#7dafff" style="" class=""/><path d="m176 288h48v16h-48z" fill="#a67dff" data-original="#7dafff" style="" class=""/><path d="m392 408h40v16h-40z" fill="#a67dff" data-original="#7dafff" style="" class=""/><path d="m312 408h64v16h-64z" fill="#a67dff" data-original="#7dafff" style="" class=""/><path d="m352 440h80v16h-80z" fill="#a67dff" data-original="#7dafff" style="" class=""/><path d="m392 256h40v16h-40z" fill="#a67dff" data-original="#7dafff" style="" class=""/><path d="m176 328h40v16h-40z" fill="#a67dff" data-original="#7dafff" style="" class=""/><path d="m232 328h96v16h-96z" fill="#a67dff" data-original="#7dafff" style="" class=""/><path d="m176 360h104v16h-104z" fill="#a67dff" data-original="#7dafff" style="" class=""/><path d="m392 328h40v16h-40z" fill="#a67dff" data-original="#7dafff" style="" class=""/></g></g></svg>
