<?xml version="1.0" encoding="UTF-8" standalone="no"?>
<!DOCTYPE svg PUBLIC "-//W3C//DTD SVG 1.1//EN" "http://www.w3.org/Graphics/SVG/1.1/DTD/svg11.dtd">
<svg width="100%" height="100%" viewBox="0 0 1080 1080" version="1.1" xmlns="http://www.w3.org/2000/svg" xmlns:xlink="http://www.w3.org/1999/xlink" xml:space="preserve" xmlns:serif="http://www.serif.com/" style="fill-rule:evenodd;clip-rule:evenodd;stroke-linejoin:round;stroke-miterlimit:2;">
    <g transform="matrix(1,0,0,1,0,-0.806535)">
        <g id="Automobile" transform="matrix(1,0,0,1,0,0.806535)">
            <rect x="0" y="0" width="1080" height="1080" style="fill:none;"/>
            <g id="Automobile1" serif:id="Automobile">
                <g transform="matrix(1.13566,0,0,1.13566,-6615.37,1146.44)">
                    <circle cx="6308" cy="-534" r="366" style="fill:rgb(131,13,146);"/>
                </g>
                <g id="Automobile2" serif:id="Automobile" transform="matrix(0.6,0,0,0.6,224.35,215.516)">
                    <path d="M540,0.807C838.034,0.807 1080,242.772 1080,540.807C1080,838.841 838.034,1080.81 540,1080.81C241.966,1080.81 0,838.841 0,540.807C0,242.772 241.966,0.807 540,0.807ZM110.117,594.079L373.279,594.079C367.605,611.308 364.537,629.702 364.537,648.807C364.537,689.546 430.488,689.053 453.87,718.807C479.052,750.851 483.073,797.36 510.727,815.823L510.727,972.964C303.031,959.078 135.22,798.503 110.117,594.079ZM969.883,594.079C944.759,798.51 776.973,959.059 569.273,972.964L569.273,814.927C598.699,794.565 607.05,743.815 632.204,711.807C655.585,682.053 714.537,689.546 714.537,648.807C714.537,629.702 711.469,611.308 705.795,594.079L969.883,594.079ZM972,572.346L972,511.534L648.036,511.534C618.21,487.917 580.508,473.807 539.537,473.807C498.565,473.807 460.863,487.917 431.037,511.534L107.842,511.534C122.935,286.091 310.796,107.673 540,107.673C779.053,107.673 973.134,301.754 973.134,540.807C973.134,551.42 972.751,561.946 972,572.346ZM107.073,527.323L107.073,554.29C106.936,549.827 106.866,545.325 106.866,540.807C106.866,536.288 106.936,531.786 107.073,527.323Z" style="fill:white;"/>
                </g>
            </g>
        </g>
    </g>
</svg>
